<mxfile host="app.diagrams.net" modified="2021-01-13T03:12:50.031Z" agent="5.0 (X11; Linux x86_64) AppleWebKit/537.36 (KHTML, like Gecko) Chrome/78.0.3904.97 Safari/537.36" etag="RWM1FwY7f3uss03QmKfG" version="14.1.9" type="github">
  <diagram name="Page-1" id="42789a77-a242-8287-6e28-9cd8cfd52e62">
    <mxGraphModel dx="1422" dy="777" grid="1" gridSize="10" guides="1" tooltips="1" connect="1" arrows="1" fold="1" page="1" pageScale="1" pageWidth="1100" pageHeight="850" background="#ffffff" math="0" shadow="0">
      <root>
        <mxCell id="0" />
        <mxCell id="1" parent="0" />
        <mxCell id="1ea317790d2ca983-1" value="1.body part locate" style="ellipse;whiteSpace=wrap;html=1;rounded=0;shadow=1;comic=0;labelBackgroundColor=none;strokeWidth=1;fontFamily=Verdana;fontSize=12;align=center;" parent="1" vertex="1">
          <mxGeometry x="414" y="120" width="90" height="60" as="geometry" />
        </mxCell>
        <mxCell id="1ea317790d2ca983-2" value="&lt;span&gt;4.lung fracture&lt;/span&gt;" style="ellipse;whiteSpace=wrap;html=1;rounded=0;shadow=1;comic=0;labelBackgroundColor=none;strokeWidth=1;fontFamily=Verdana;fontSize=12;align=center;" parent="1" vertex="1">
          <mxGeometry x="280" y="240" width="75" height="50" as="geometry" />
        </mxCell>
        <mxCell id="1ea317790d2ca983-3" value="&lt;span&gt;5.lung nodule&lt;/span&gt;" style="ellipse;whiteSpace=wrap;html=1;rounded=0;shadow=1;comic=0;labelBackgroundColor=none;strokeWidth=1;fontFamily=Verdana;fontSize=12;align=center;" parent="1" vertex="1">
          <mxGeometry x="387.5" y="240" width="75" height="50" as="geometry" />
        </mxCell>
        <mxCell id="1ea317790d2ca983-9" value="3.lung phenumonia" style="ellipse;whiteSpace=wrap;html=1;rounded=0;shadow=1;comic=0;labelBackgroundColor=none;strokeWidth=1;fontFamily=Verdana;fontSize=12;align=center;" parent="1" vertex="1">
          <mxGeometry x="180" y="240" width="75" height="50" as="geometry" />
        </mxCell>
        <mxCell id="E7qCEXml-a51oX7vlCE2-1" value="2.whole body segment" style="ellipse;whiteSpace=wrap;html=1;" vertex="1" parent="1">
          <mxGeometry x="200" y="120" width="100" height="60" as="geometry" />
        </mxCell>
        <mxCell id="E7qCEXml-a51oX7vlCE2-6" value="START" style="ellipse;whiteSpace=wrap;html=1;" vertex="1" parent="1">
          <mxGeometry x="408" width="102" height="60" as="geometry" />
        </mxCell>
        <mxCell id="E7qCEXml-a51oX7vlCE2-11" value="6.lung result" style="ellipse;whiteSpace=wrap;html=1;" vertex="1" parent="1">
          <mxGeometry x="220" y="370" width="95" height="50" as="geometry" />
        </mxCell>
        <mxCell id="E7qCEXml-a51oX7vlCE2-13" value="" style="endArrow=classic;html=1;" edge="1" parent="1" source="E7qCEXml-a51oX7vlCE2-6" target="1ea317790d2ca983-1">
          <mxGeometry width="50" height="50" relative="1" as="geometry">
            <mxPoint x="520" y="370" as="sourcePoint" />
            <mxPoint x="570" y="320" as="targetPoint" />
          </mxGeometry>
        </mxCell>
        <mxCell id="E7qCEXml-a51oX7vlCE2-18" value="" style="endArrow=classic;html=1;exitX=0.5;exitY=1;exitDx=0;exitDy=0;" edge="1" parent="1" source="1ea317790d2ca983-9" target="E7qCEXml-a51oX7vlCE2-11">
          <mxGeometry width="50" height="50" relative="1" as="geometry">
            <mxPoint x="520" y="370" as="sourcePoint" />
            <mxPoint x="570" y="320" as="targetPoint" />
          </mxGeometry>
        </mxCell>
        <mxCell id="E7qCEXml-a51oX7vlCE2-19" value="" style="endArrow=classic;html=1;exitX=0.5;exitY=1;exitDx=0;exitDy=0;" edge="1" parent="1" source="1ea317790d2ca983-2" target="E7qCEXml-a51oX7vlCE2-11">
          <mxGeometry width="50" height="50" relative="1" as="geometry">
            <mxPoint x="520" y="370" as="sourcePoint" />
            <mxPoint x="570" y="320" as="targetPoint" />
          </mxGeometry>
        </mxCell>
        <mxCell id="E7qCEXml-a51oX7vlCE2-20" value="" style="endArrow=classic;html=1;exitX=0.307;exitY=0.94;exitDx=0;exitDy=0;exitPerimeter=0;" edge="1" parent="1" source="1ea317790d2ca983-3" target="E7qCEXml-a51oX7vlCE2-11">
          <mxGeometry width="50" height="50" relative="1" as="geometry">
            <mxPoint x="520" y="370" as="sourcePoint" />
            <mxPoint x="570" y="320" as="targetPoint" />
          </mxGeometry>
        </mxCell>
        <mxCell id="E7qCEXml-a51oX7vlCE2-22" value="" style="endArrow=classic;html=1;exitX=0.5;exitY=1;exitDx=0;exitDy=0;" edge="1" parent="1" source="1ea317790d2ca983-3" target="E7qCEXml-a51oX7vlCE2-23">
          <mxGeometry width="50" height="50" relative="1" as="geometry">
            <mxPoint x="510" y="270" as="sourcePoint" />
            <mxPoint x="570" y="320" as="targetPoint" />
          </mxGeometry>
        </mxCell>
        <mxCell id="E7qCEXml-a51oX7vlCE2-23" value="7.lung registration" style="ellipse;whiteSpace=wrap;html=1;" vertex="1" parent="1">
          <mxGeometry x="347.5" y="370" width="100" height="50" as="geometry" />
        </mxCell>
        <mxCell id="E7qCEXml-a51oX7vlCE2-24" value="8.cardiac coronary" style="ellipse;whiteSpace=wrap;html=1;" vertex="1" parent="1">
          <mxGeometry x="600" y="117.5" width="110" height="62.5" as="geometry" />
        </mxCell>
        <mxCell id="E7qCEXml-a51oX7vlCE2-26" value="" style="endArrow=classic;html=1;exitX=1;exitY=1;exitDx=0;exitDy=0;" edge="1" parent="1" source="E7qCEXml-a51oX7vlCE2-6" target="E7qCEXml-a51oX7vlCE2-24">
          <mxGeometry width="50" height="50" relative="1" as="geometry">
            <mxPoint x="680" y="260" as="sourcePoint" />
            <mxPoint x="730" y="210" as="targetPoint" />
          </mxGeometry>
        </mxCell>
        <mxCell id="E7qCEXml-a51oX7vlCE2-34" value="" style="endArrow=classic;html=1;entryX=0.5;entryY=0;entryDx=0;entryDy=0;" edge="1" parent="1" source="1ea317790d2ca983-1" target="1ea317790d2ca983-9">
          <mxGeometry width="50" height="50" relative="1" as="geometry">
            <mxPoint x="520" y="370" as="sourcePoint" />
            <mxPoint x="570" y="320" as="targetPoint" />
          </mxGeometry>
        </mxCell>
        <mxCell id="E7qCEXml-a51oX7vlCE2-35" value="" style="endArrow=classic;html=1;" edge="1" parent="1" source="1ea317790d2ca983-1" target="1ea317790d2ca983-2">
          <mxGeometry width="50" height="50" relative="1" as="geometry">
            <mxPoint x="520" y="370" as="sourcePoint" />
            <mxPoint x="570" y="320" as="targetPoint" />
          </mxGeometry>
        </mxCell>
        <mxCell id="E7qCEXml-a51oX7vlCE2-36" value="9.liver scouting" style="ellipse;whiteSpace=wrap;html=1;" vertex="1" parent="1">
          <mxGeometry x="510" y="240" width="90" height="55" as="geometry" />
        </mxCell>
        <mxCell id="E7qCEXml-a51oX7vlCE2-40" value="" style="endArrow=classic;html=1;entryX=0.97;entryY=0.3;entryDx=0;entryDy=0;entryPerimeter=0;exitX=0;exitY=1;exitDx=0;exitDy=0;" edge="1" parent="1" source="E7qCEXml-a51oX7vlCE2-6" target="E7qCEXml-a51oX7vlCE2-1">
          <mxGeometry width="50" height="50" relative="1" as="geometry">
            <mxPoint x="430" y="48" as="sourcePoint" />
            <mxPoint x="610" y="230" as="targetPoint" />
          </mxGeometry>
        </mxCell>
        <mxCell id="E7qCEXml-a51oX7vlCE2-43" value="" style="endArrow=classic;html=1;" edge="1" parent="1" source="1ea317790d2ca983-1" target="1ea317790d2ca983-3">
          <mxGeometry width="50" height="50" relative="1" as="geometry">
            <mxPoint x="520" y="370" as="sourcePoint" />
            <mxPoint x="570" y="320" as="targetPoint" />
          </mxGeometry>
        </mxCell>
        <mxCell id="E7qCEXml-a51oX7vlCE2-44" value="" style="endArrow=classic;html=1;" edge="1" parent="1" source="1ea317790d2ca983-1" target="E7qCEXml-a51oX7vlCE2-36">
          <mxGeometry width="50" height="50" relative="1" as="geometry">
            <mxPoint x="520" y="370" as="sourcePoint" />
            <mxPoint x="570" y="320" as="targetPoint" />
          </mxGeometry>
        </mxCell>
        <mxCell id="E7qCEXml-a51oX7vlCE2-45" value="10.liver phase detect" style="ellipse;whiteSpace=wrap;html=1;" vertex="1" parent="1">
          <mxGeometry x="490" y="365" width="100" height="55" as="geometry" />
        </mxCell>
        <mxCell id="E7qCEXml-a51oX7vlCE2-46" value="" style="endArrow=classic;html=1;" edge="1" parent="1" source="E7qCEXml-a51oX7vlCE2-36" target="E7qCEXml-a51oX7vlCE2-45">
          <mxGeometry width="50" height="50" relative="1" as="geometry">
            <mxPoint x="520" y="370" as="sourcePoint" />
            <mxPoint x="570" y="320" as="targetPoint" />
          </mxGeometry>
        </mxCell>
        <mxCell id="E7qCEXml-a51oX7vlCE2-47" value="11.liver organ segment" style="ellipse;whiteSpace=wrap;html=1;" vertex="1" parent="1">
          <mxGeometry x="490" y="440" width="100" height="60" as="geometry" />
        </mxCell>
        <mxCell id="E7qCEXml-a51oX7vlCE2-50" value="" style="endArrow=classic;html=1;entryX=0.5;entryY=0;entryDx=0;entryDy=0;exitX=0.5;exitY=1;exitDx=0;exitDy=0;" edge="1" parent="1" source="E7qCEXml-a51oX7vlCE2-45" target="E7qCEXml-a51oX7vlCE2-47">
          <mxGeometry width="50" height="50" relative="1" as="geometry">
            <mxPoint x="590" y="430" as="sourcePoint" />
            <mxPoint x="570" y="320" as="targetPoint" />
          </mxGeometry>
        </mxCell>
        <mxCell id="E7qCEXml-a51oX7vlCE2-51" value="12.liver vessel segment" style="ellipse;whiteSpace=wrap;html=1;" vertex="1" parent="1">
          <mxGeometry x="342.5" y="540" width="110" height="60" as="geometry" />
        </mxCell>
        <mxCell id="E7qCEXml-a51oX7vlCE2-52" value="" style="endArrow=classic;html=1;entryX=0.5;entryY=0;entryDx=0;entryDy=0;" edge="1" parent="1" source="E7qCEXml-a51oX7vlCE2-47" target="E7qCEXml-a51oX7vlCE2-51">
          <mxGeometry width="50" height="50" relative="1" as="geometry">
            <mxPoint x="520" y="480" as="sourcePoint" />
            <mxPoint x="570" y="430" as="targetPoint" />
          </mxGeometry>
        </mxCell>
        <mxCell id="E7qCEXml-a51oX7vlCE2-53" value="13.liver vessel naming" style="ellipse;whiteSpace=wrap;html=1;" vertex="1" parent="1">
          <mxGeometry x="355" y="640" width="100" height="60" as="geometry" />
        </mxCell>
        <mxCell id="E7qCEXml-a51oX7vlCE2-54" value="" style="endArrow=classic;html=1;exitX=0.5;exitY=1;exitDx=0;exitDy=0;" edge="1" parent="1" source="E7qCEXml-a51oX7vlCE2-51" target="E7qCEXml-a51oX7vlCE2-53">
          <mxGeometry width="50" height="50" relative="1" as="geometry">
            <mxPoint x="520" y="480" as="sourcePoint" />
            <mxPoint x="570" y="430" as="targetPoint" />
          </mxGeometry>
        </mxCell>
        <mxCell id="E7qCEXml-a51oX7vlCE2-55" value="14.liver registration" style="ellipse;whiteSpace=wrap;html=1;" vertex="1" parent="1">
          <mxGeometry x="490" y="540" width="100" height="60" as="geometry" />
        </mxCell>
        <mxCell id="E7qCEXml-a51oX7vlCE2-58" value="" style="endArrow=classic;html=1;" edge="1" parent="1" source="E7qCEXml-a51oX7vlCE2-47" target="E7qCEXml-a51oX7vlCE2-55">
          <mxGeometry width="50" height="50" relative="1" as="geometry">
            <mxPoint x="520" y="640" as="sourcePoint" />
            <mxPoint x="570" y="590" as="targetPoint" />
          </mxGeometry>
        </mxCell>
        <mxCell id="E7qCEXml-a51oX7vlCE2-59" value="15.liver lesion segment" style="ellipse;whiteSpace=wrap;html=1;" vertex="1" parent="1">
          <mxGeometry x="620" y="540" width="100" height="60" as="geometry" />
        </mxCell>
        <mxCell id="E7qCEXml-a51oX7vlCE2-60" value="" style="endArrow=classic;html=1;exitX=1;exitY=1;exitDx=0;exitDy=0;" edge="1" parent="1" source="E7qCEXml-a51oX7vlCE2-47" target="E7qCEXml-a51oX7vlCE2-59">
          <mxGeometry width="50" height="50" relative="1" as="geometry">
            <mxPoint x="520" y="640" as="sourcePoint" />
            <mxPoint x="570" y="590" as="targetPoint" />
          </mxGeometry>
        </mxCell>
        <mxCell id="E7qCEXml-a51oX7vlCE2-61" value="16.liver lesion instantiation" style="ellipse;whiteSpace=wrap;html=1;" vertex="1" parent="1">
          <mxGeometry x="540" y="630" width="110" height="70" as="geometry" />
        </mxCell>
        <mxCell id="E7qCEXml-a51oX7vlCE2-62" value="" style="endArrow=classic;html=1;exitX=0.5;exitY=1;exitDx=0;exitDy=0;entryX=0.5;entryY=0;entryDx=0;entryDy=0;" edge="1" parent="1" source="E7qCEXml-a51oX7vlCE2-55" target="E7qCEXml-a51oX7vlCE2-61">
          <mxGeometry width="50" height="50" relative="1" as="geometry">
            <mxPoint x="520" y="530" as="sourcePoint" />
            <mxPoint x="570" y="480" as="targetPoint" />
          </mxGeometry>
        </mxCell>
        <mxCell id="E7qCEXml-a51oX7vlCE2-63" value="" style="endArrow=classic;html=1;exitX=0.5;exitY=1;exitDx=0;exitDy=0;entryX=0.682;entryY=0.057;entryDx=0;entryDy=0;entryPerimeter=0;" edge="1" parent="1" source="E7qCEXml-a51oX7vlCE2-59" target="E7qCEXml-a51oX7vlCE2-61">
          <mxGeometry width="50" height="50" relative="1" as="geometry">
            <mxPoint x="520" y="530" as="sourcePoint" />
            <mxPoint x="570" y="480" as="targetPoint" />
          </mxGeometry>
        </mxCell>
        <mxCell id="E7qCEXml-a51oX7vlCE2-64" value="17. liver lesion projection" style="ellipse;whiteSpace=wrap;html=1;" vertex="1" parent="1">
          <mxGeometry x="485" y="730" width="110" height="60" as="geometry" />
        </mxCell>
        <mxCell id="E7qCEXml-a51oX7vlCE2-65" value="" style="endArrow=classic;html=1;exitX=0.309;exitY=0.957;exitDx=0;exitDy=0;entryX=0.5;entryY=0;entryDx=0;entryDy=0;exitPerimeter=0;" edge="1" parent="1" source="E7qCEXml-a51oX7vlCE2-61" target="E7qCEXml-a51oX7vlCE2-64">
          <mxGeometry width="50" height="50" relative="1" as="geometry">
            <mxPoint x="520" y="790" as="sourcePoint" />
            <mxPoint x="570" y="740" as="targetPoint" />
          </mxGeometry>
        </mxCell>
        <mxCell id="E7qCEXml-a51oX7vlCE2-66" value="18.liver lesion diagnosis" style="ellipse;whiteSpace=wrap;html=1;" vertex="1" parent="1">
          <mxGeometry x="640" y="720" width="100" height="70" as="geometry" />
        </mxCell>
        <mxCell id="E7qCEXml-a51oX7vlCE2-67" value="" style="endArrow=classic;html=1;exitX=1;exitY=1;exitDx=0;exitDy=0;" edge="1" parent="1" source="E7qCEXml-a51oX7vlCE2-61" target="E7qCEXml-a51oX7vlCE2-66">
          <mxGeometry width="50" height="50" relative="1" as="geometry">
            <mxPoint x="520" y="640" as="sourcePoint" />
            <mxPoint x="570" y="590" as="targetPoint" />
          </mxGeometry>
        </mxCell>
      </root>
    </mxGraphModel>
  </diagram>
</mxfile>
